<svg xmlns="http://www.w3.org/2000/svg" viewBox="0 0 720 280" fill="none">
  <defs>
    <linearGradient id="bg" x1="0" y1="0" x2="0" y2="1">
      <stop offset="0%" stop-color="#1e293b"/>
      <stop offset="100%" stop-color="#0f172a"/>
    </linearGradient>
    <linearGradient id="barFill" x1="0" y1="0" x2="0" y2="1">
      <stop offset="0%" stop-color="#22d3ee"/>
      <stop offset="100%" stop-color="#06b6d4"/>
    </linearGradient>
  </defs>

  <!-- terminal window -->
  <rect width="720" height="280" rx="8" fill="url(#bg)"/>
  <rect x="0" y="0" width="720" height="32" rx="8" fill="#334155"/>
  <rect x="0" y="24" width="720" height="8" fill="#334155"/>
  <circle cx="20" cy="16" r="6" fill="#ef4444" opacity="0.8"/>
  <circle cx="40" cy="16" r="6" fill="#eab308" opacity="0.8"/>
  <circle cx="60" cy="16" r="6" fill="#22c55e" opacity="0.8"/>
  <text x="360" y="20" font-family="ui-monospace, monospace" font-size="12" fill="#94a3b8" text-anchor="middle">tku plot</text>

  <!-- chart border -->
  <rect x="24" y="44" width="672" height="220" rx="4" fill="none" stroke="#475569" stroke-width="1"/>

  <!-- title -->
  <text x="32" y="60" font-family="ui-monospace, monospace" font-size="11" fill="#e2e8f0">Token usage — last 30 days (daily buckets)</text>

  <!-- y-axis baseline -->
  <line x1="32" y1="244" x2="688" y2="244" stroke="#334155" stroke-width="1"/>

  <!-- bars — 30 bars, each 20px wide with 2px gap -->
  <!-- heights represent a realistic usage pattern -->
  <rect x="34"  y="218" width="18" height="26"  rx="2" fill="url(#barFill)" opacity="0.85"/>
  <rect x="56"  y="224" width="18" height="20"  rx="2" fill="url(#barFill)" opacity="0.85"/>
  <rect x="78"  y="200" width="18" height="44"  rx="2" fill="url(#barFill)" opacity="0.85"/>
  <rect x="100" y="190" width="18" height="54"  rx="2" fill="url(#barFill)" opacity="0.85"/>
  <rect x="122" y="210" width="18" height="34"  rx="2" fill="url(#barFill)" opacity="0.85"/>
  <rect x="144" y="232" width="18" height="12"  rx="2" fill="url(#barFill)" opacity="0.85"/>
  <rect x="166" y="236" width="18" height="8"   rx="2" fill="url(#barFill)" opacity="0.85"/>
  <rect x="188" y="178" width="18" height="66"  rx="2" fill="url(#barFill)" opacity="0.85"/>
  <rect x="210" y="148" width="18" height="96"  rx="2" fill="url(#barFill)" opacity="0.85"/>
  <rect x="232" y="164" width="18" height="80"  rx="2" fill="url(#barFill)" opacity="0.85"/>
  <rect x="254" y="188" width="18" height="56"  rx="2" fill="url(#barFill)" opacity="0.85"/>
  <rect x="276" y="196" width="18" height="48"  rx="2" fill="url(#barFill)" opacity="0.85"/>
  <rect x="298" y="226" width="18" height="18"  rx="2" fill="url(#barFill)" opacity="0.85"/>
  <rect x="320" y="230" width="18" height="14"  rx="2" fill="url(#barFill)" opacity="0.85"/>
  <rect x="342" y="174" width="18" height="70"  rx="2" fill="url(#barFill)" opacity="0.85"/>
  <rect x="364" y="120" width="18" height="124" rx="2" fill="url(#barFill)" opacity="0.85"/>
  <rect x="386" y="100" width="18" height="144" rx="2" fill="url(#barFill)" opacity="0.85"/>
  <rect x="408" y="132" width="18" height="112" rx="2" fill="url(#barFill)" opacity="0.85"/>
  <rect x="430" y="156" width="18" height="88"  rx="2" fill="url(#barFill)" opacity="0.85"/>
  <rect x="452" y="180" width="18" height="64"  rx="2" fill="url(#barFill)" opacity="0.85"/>
  <rect x="474" y="204" width="18" height="40"  rx="2" fill="url(#barFill)" opacity="0.85"/>
  <rect x="496" y="234" width="18" height="10"  rx="2" fill="url(#barFill)" opacity="0.85"/>
  <rect x="518" y="234" width="18" height="10"  rx="2" fill="url(#barFill)" opacity="0.85"/>
  <rect x="540" y="142" width="18" height="102" rx="2" fill="url(#barFill)" opacity="0.85"/>
  <rect x="562" y="84"  width="18" height="160" rx="2" fill="url(#barFill)" opacity="0.85"/>
  <rect x="584" y="108" width="18" height="136" rx="2" fill="url(#barFill)" opacity="0.85"/>
  <rect x="606" y="126" width="18" height="118" rx="2" fill="url(#barFill)" opacity="0.85"/>
  <rect x="628" y="158" width="18" height="86"  rx="2" fill="url(#barFill)" opacity="0.85"/>
  <rect x="650" y="170" width="18" height="74"  rx="2" fill="url(#barFill)" opacity="0.85"/>
  <rect x="672" y="192" width="18" height="52"  rx="2" fill="url(#barFill)" opacity="0.85"/>

  <!-- x-axis labels (sparse, like the real output) -->
  <text x="84"  y="258" font-family="ui-monospace, monospace" font-size="9" fill="#64748b" text-anchor="middle">Jan 27</text>
  <text x="216" y="258" font-family="ui-monospace, monospace" font-size="9" fill="#64748b" text-anchor="middle">1</text>
  <text x="238" y="258" font-family="ui-monospace, monospace" font-size="9" fill="#64748b" text-anchor="middle">Feb 1</text>
  <text x="370" y="258" font-family="ui-monospace, monospace" font-size="9" fill="#64748b" text-anchor="middle">7</text>
  <text x="500" y="258" font-family="ui-monospace, monospace" font-size="9" fill="#64748b" text-anchor="middle">13</text>
  <text x="592" y="258" font-family="ui-monospace, monospace" font-size="9" fill="#64748b" text-anchor="middle">17</text>
  <text x="680" y="258" font-family="ui-monospace, monospace" font-size="9" fill="#64748b" text-anchor="middle">21</text>
</svg>
